<?xml version="1.0" standalone="no"?><!DOCTYPE svg PUBLIC "-//W3C//DTD SVG 1.1//EN" "http://www.w3.org/Graphics/SVG/1.1/DTD/svg11.dtd">
<svg t="1604045733782" class="icon" id="check0" viewBox="0 0 1024 1024" version="1.1"
  xmlns="http://www.w3.org/2000/svg" p-id="3930"
  xmlns:xlink="http://www.w3.org/1999/xlink" width="128" height="128">
  <defs>
    <style type="text/css"></style>
  </defs>
  <path d="M645 509.4L932.4 222c36.1-36.1 36.1-94.5 0-130.6-36.1-36.1-94.5-36.1-130.6 0L514.4 378.8 227 91.4c-36.1-36.1-94.5-36.1-130.6 0-36.1 36.1-36.1 94.5 0 130.6l287.4 287.4L96.4 796.8c-36.1 36.1-36.1 94.5 0 130.6 17.3 17.3 40.8 27.1 65.3 27 24.5 0 48-9.7 65.3-27L514.4 640l287.4 287.4c17.3 17.3 40.8 27.1 65.3 27 24.5 0 48-9.7 65.3-27 36.1-36.1 36.1-94.5 0-130.6L645 509.4z m0 0" p-id="3931"></path>
</svg>
